<svg width="59" height="59" viewBox="0 0 59 59" fill="none" xmlns="http://www.w3.org/2000/svg">
<g id="Frame 2085666487">
<g id="Group 8">
<g id="Group 7">
<rect id="Rectangle 15" width="59" height="59" rx="13.4202" fill="url(#paint0_linear_20_2571)"/>
<g id="Group">
<path id="Vector" d="M11.1722 38.3604C11.1722 38.3604 15.0455 33.2941 22.0041 35.7204C28.9627 38.1467 31.9751 35.5068 31.9751 35.5068C31.9751 35.5068 28.3884 40.2163 21.5736 37.7185C14.7589 35.2207 11.1722 38.3604 11.1722 38.3604Z" fill="url(#paint1_linear_20_2571)"/>
<path id="Vector_2" d="M15.7186 39.1539C16.1104 39.1539 16.428 38.8379 16.428 38.4481C16.428 38.0583 16.1104 37.7423 15.7186 37.7423C15.3267 37.7423 15.0091 38.0583 15.0091 38.4481C15.0091 38.8379 15.3267 39.1539 15.7186 39.1539Z" fill="url(#paint2_linear_20_2571)"/>
<path id="Vector_3" d="M40.1388 22.3883C41.8645 19.859 40.7227 16.6697 37.4322 14.5734C31.6596 12.5773 25.1142 13.1476 19.9332 15.9735C37.9883 12.9235 41.9719 25.0072 32.9884 25.9152C32.9884 25.9152 37.6633 26.0182 40.1397 22.3883H40.1388Z" fill="url(#paint3_linear_20_2571)"/>
<path id="Vector_4" d="M52.546 28.9032C52.4376 28.8221 52.3206 28.68 52.3082 28.556C52.1663 27.1245 51.337 26.2852 50.011 25.8541C48.9449 25.5079 47.851 25.5098 46.7503 25.5766C46.4397 25.5957 46.1271 25.6014 45.7935 25.6138C45.8146 25.4974 45.8223 25.4383 45.8357 25.3792C46.5902 21.8885 45.364 19.198 42.4954 17.1618C40.924 16.0469 39.2146 15.1886 37.4322 14.5725C40.7227 16.6697 41.8645 19.858 40.1388 22.3873C37.6623 26.0172 32.9875 25.9142 32.9875 25.9142C28.4775 26.3701 24.0021 26.104 19.5871 25.0492C15.9112 24.1708 12.4712 22.6801 9.10508 21.0025C8.41958 20.6611 7.72928 20.3292 6.97283 19.9591C7.0246 20.0745 7.02843 20.1089 7.04761 20.1222C7.41673 20.3912 7.77434 20.6763 8.1588 20.9214C12.4013 23.6338 17.0339 25.4288 21.889 26.7106C22.7998 26.9509 23.6876 27.2809 24.5726 27.6071C24.7547 27.6748 24.9906 27.9151 24.9877 28.0715C24.9839 28.2279 24.7394 28.4559 24.5543 28.5188C23.8497 28.7601 23.1383 29.0129 22.4077 29.1435C17.2401 30.0667 12.0398 30.1125 6.82518 29.6356C5.97381 29.5574 5.12628 29.4439 4.27683 29.3467C4.25957 29.4468 4.26628 29.4048 4.24902 29.505C5.39089 29.7625 6.52413 30.0667 7.67559 30.268C11.0724 30.8631 14.5019 30.906 17.9332 30.7124C20.7328 30.555 23.5294 30.3281 26.3271 30.1411C26.3271 30.1411 35.1869 28.4797 38.0535 33.2121C40.5194 37.2817 38.3689 41.6183 34.509 43.5858C40.6278 41.8357 45.2297 38.0103 45.3122 33.4448C45.3179 33.1358 45.4809 33.0796 45.7091 32.9985C47.828 32.2355 49.8624 31.3066 51.6936 29.9771C51.8336 29.875 52.0579 29.8579 52.2439 29.8541C52.7454 29.8436 53.2468 29.8617 53.7482 29.8684C53.3599 29.4754 52.9448 29.1998 52.546 28.9022V28.9032Z" fill="url(#paint4_linear_20_2571)"/>
<path id="Vector_5" d="M38.0536 33.214C35.186 28.4816 26.3271 30.143 26.3271 30.143C36.8724 29.4401 38.3901 39.4819 25.8497 41.3131C22.9869 41.8367 16.1155 41.6955 11.1607 38.6551C17.6831 44.8037 27.1833 45.6831 34.5091 43.5877C38.369 41.6202 40.5195 37.2836 38.0536 33.214Z" fill="url(#paint5_linear_20_2571)"/>
</g>
</g>
</g>
</g>
<defs>
<linearGradient id="paint0_linear_20_2571" x1="29.5" y1="0" x2="29.5" y2="59" gradientUnits="userSpaceOnUse">
<stop stop-color="#61DCFB"/>
<stop offset="1" stop-color="#BCF0FF" stop-opacity="0.9"/>
</linearGradient>
<linearGradient id="paint1_linear_20_2571" x1="13.6151" y1="36.7552" x2="39.0315" y2="36.7552" gradientUnits="userSpaceOnUse">
<stop stop-color="#00A0E9"/>
<stop offset="1" stop-color="#172A88"/>
</linearGradient>
<linearGradient id="paint2_linear_20_2571" x1="13.6151" y1="38.4481" x2="39.0315" y2="38.4481" gradientUnits="userSpaceOnUse">
<stop stop-color="#00A0E9"/>
<stop offset="1" stop-color="#172A88"/>
</linearGradient>
<linearGradient id="paint3_linear_20_2571" x1="13.615" y1="19.653" x2="39.0314" y2="19.653" gradientUnits="userSpaceOnUse">
<stop stop-color="#00A0E9"/>
<stop offset="1" stop-color="#172A88"/>
</linearGradient>
<linearGradient id="paint4_linear_20_2571" x1="54.0847" y1="29.0806" x2="25.9637" y2="29.0806" gradientUnits="userSpaceOnUse">
<stop stop-color="#00A0E9"/>
<stop offset="1" stop-color="#172A88"/>
</linearGradient>
<linearGradient id="paint5_linear_20_2571" x1="13.6151" y1="37.2359" x2="39.0315" y2="37.2359" gradientUnits="userSpaceOnUse">
<stop stop-color="#00A0E9"/>
<stop offset="1" stop-color="#172A88"/>
</linearGradient>
</defs>
</svg>
