<svg width="282" height="282" viewBox="0 0 282 282" fill="none" xmlns="http://www.w3.org/2000/svg">
<g id="Group 2085665261">
<g id="Group 2085665142">
<ellipse id="Ellipse 663" opacity="0.55" cx="145.548" cy="237.958" rx="118.283" ry="25.512" fill="url(#paint0_linear_20_2385)"/>
<g id="Group 2085665139">
<g id="Group 2085665137">
<path id="Vector 1248" d="M191.47 156.783C191.47 166.139 190.542 184.79 190.542 185.057L201.674 179.976L191.47 156.783Z" fill="url(#paint1_linear_20_2385)"/>
<path id="Vector 1247" d="M191.47 156.784H105.193V192.965H191.47V156.784Z" fill="url(#paint2_linear_20_2385)"/>
<path id="Vector 1246" d="M105.193 156.783L94.0604 179.976L96.0653 184.927L105.421 189.939L105.193 156.783Z" fill="url(#paint3_linear_20_2385)"/>
<path id="Vector 1245" d="M191.47 156.784L201.674 179.977L221.398 190.813L206.361 168.425L191.47 156.784Z" fill="url(#paint4_linear_20_2385)"/>
<path id="Vector 1244" d="M74.5781 191.276L94.06 179.977L105.193 156.784L90.283 168.554L74.5781 191.276Z" fill="url(#paint5_linear_20_2385)"/>
<g id="Frame">
<path d="M124 160.5C131.456 160.5 137.5 166.544 137.5 174C137.5 181.456 131.456 187.5 124 187.5C116.544 187.5 110.5 181.456 110.5 174C110.5 166.544 116.544 160.5 124 160.5Z" fill="white" fill-opacity="0.43"/>
<path d="M124 160.5C131.456 160.5 137.5 166.544 137.5 174C137.5 181.456 131.456 187.5 124 187.5C116.544 187.5 110.5 181.456 110.5 174C110.5 166.544 116.544 160.5 124 160.5Z" stroke="#6DC9F8"/>
<g id="Frame_2" clip-path="url(#clip0_20_2385)">
<g id="Clip path group">
<mask id="mask0_20_2385" style="mask-type:luminance" maskUnits="userSpaceOnUse" x="115" y="166" width="18" height="17">
<g id="icon-744e365255a411ae">
<path id="Vector" d="M132.346 166H115.423V182.923H132.346V166Z" fill="white"/>
</g>
</mask>
<g mask="url(#mask0_20_2385)">
<g id="Group">
<g id="Group 2085666344">
<path id="Vector_2" d="M120.471 177.947C118.318 177.409 114.821 178.755 118.318 180.1C119.663 183.597 121.008 180.1 120.471 177.947Z" stroke="#6DC9F8" stroke-linecap="round" stroke-linejoin="round"/>
<path id="Vector_3" d="M123.172 169.35C121.307 169.345 118.899 169.935 118.596 170.768C118.376 171.373 119.518 172.177 120.974 172.602" stroke="#6DC9F8" stroke-linecap="round" stroke-linejoin="round"/>
<path id="Vector_4" d="M129.068 175.246C129.073 177.111 128.483 179.519 127.649 179.822C127.045 180.042 126.241 178.9 125.816 177.444" stroke="#6DC9F8" stroke-linecap="round" stroke-linejoin="round"/>
<path id="Vector_5" d="M129.076 175.254C131.611 172.946 129.885 168.53 129.885 168.53C129.885 168.53 125.313 167.186 123.161 169.338C121.008 171.491 120.47 177.947 120.47 177.947C120.47 177.947 126.541 177.561 129.076 175.254Z" stroke="#6DC9F8" stroke-linecap="round" stroke-linejoin="round"/>
<path id="Vector_6" d="M129.079 175.257C129.079 175.257 126.524 174.854 125.044 173.374C123.564 171.894 123.161 169.339 123.161 169.339" stroke="#6DC9F8" stroke-linecap="round" stroke-linejoin="round"/>
<path id="Vector_7" d="M126.927 171.491C127.225 171.788 127.706 171.788 128.004 171.491C128.301 171.194 128.301 170.712 128.004 170.415C127.706 170.117 127.225 170.117 126.927 170.415C126.63 170.712 126.63 171.194 126.927 171.491Z" fill="#6DC9F8"/>
</g>
</g>
</g>
</g>
</g>
</g>
<path id="Rectangle 6425" d="M94.06 179.976H201.674V226.422C201.674 233.049 196.302 238.422 189.674 238.422H106.06C99.4326 238.422 94.06 233.049 94.06 226.422V179.976Z" fill="url(#paint6_linear_20_2385)"/>
</g>
</g>
<path id="Rectangle 6426" d="M230.176 160.662H236.859V188.731H230.176V160.662Z" fill="url(#paint7_linear_20_2385)"/>
<rect id="Rectangle 6427" x="67.7812" y="129.922" width="6.68293" height="44.1074" fill="url(#paint8_linear_20_2385)"/>
<rect id="Rectangle 6428" x="135.358" y="69.4819" width="6.49398" height="49.1687" fill="url(#paint9_linear_20_2385)"/>
<rect id="Rectangle 6429" x="29.6759" y="138.542" width="8.4284" height="8.4284" transform="rotate(-45 29.6759 138.542)" fill="#C3DCFF" stroke="#C3E9FF" stroke-width="0.927711"/>
<rect id="Rectangle 6433" x="131.656" y="56.6157" width="8.4284" height="8.4284" transform="rotate(-45 131.656 56.6157)" fill="#C3DCFF" stroke="#C3E9FF" stroke-width="0.927711"/>
<rect id="Rectangle 6430" x="239.52" y="205.371" width="8.4284" height="8.4284" transform="rotate(-45 239.52 205.371)" fill="#C3DCFF" stroke="#C3E9FF" stroke-width="0.927711"/>
<rect id="Rectangle 6431" x="237.656" y="119.616" width="8.4284" height="8.4284" transform="rotate(-45 237.656 119.616)" stroke="#ABCEEA" stroke-width="0.927711"/>
<rect id="Rectangle 6432" x="73.7837" y="93.0964" width="8.4284" height="8.4284" transform="rotate(-45 73.7837 93.0964)" stroke="#ABCEEA" stroke-width="0.927711"/>
<g id="Group 2085665140">
<rect id="Rectangle 6433_2" x="167" y="103.678" width="8.68781" height="1.33659" fill="#ABCEEA"/>
<rect id="Rectangle 6434" x="170.675" y="108.688" width="8.68781" height="1.33659" transform="rotate(-90 170.675 108.688)" fill="#ABCEEA"/>
</g>
<g id="Group 2085665141">
<rect id="Rectangle 6433_3" x="42.386" y="183.719" width="8.68781" height="1.33659" fill="#ABCEEA"/>
<rect id="Rectangle 6434_2" x="46.0621" y="188.729" width="8.68781" height="1.33659" transform="rotate(-90 46.0621 188.729)" fill="#ABCEEA"/>
</g>
</g>
</g>
<defs>
<linearGradient id="paint0_linear_20_2385" x1="147.11" y1="212.446" x2="146.089" y2="262.015" gradientUnits="userSpaceOnUse">
<stop stop-color="#C2E7FF"/>
<stop offset="0.475" stop-color="#CEF1FF" stop-opacity="0.8"/>
<stop offset="1" stop-color="#D2EFFF" stop-opacity="0.2"/>
</linearGradient>
<linearGradient id="paint1_linear_20_2385" x1="195.18" y1="162.813" x2="196.108" y2="185.057" gradientUnits="userSpaceOnUse">
<stop stop-color="#9DBAF0"/>
<stop offset="1" stop-color="#6BAFEE"/>
</linearGradient>
<linearGradient id="paint2_linear_20_2385" x1="186.178" y1="157.914" x2="173.396" y2="203.016" gradientUnits="userSpaceOnUse">
<stop stop-color="#ACD0F4"/>
<stop offset="1" stop-color="#94C2FF"/>
</linearGradient>
<linearGradient id="paint3_linear_20_2385" x1="98.7942" y1="163.855" x2="100.044" y2="189.925" gradientUnits="userSpaceOnUse">
<stop stop-color="#9DBAF0"/>
<stop offset="1" stop-color="#6BAFEE"/>
</linearGradient>
<linearGradient id="paint4_linear_20_2385" x1="219.562" y1="157.847" x2="197.421" y2="186.661" gradientUnits="userSpaceOnUse">
<stop stop-color="#ACD0F4"/>
<stop offset="1" stop-color="#94C2FF"/>
</linearGradient>
<linearGradient id="paint5_linear_20_2385" x1="103.315" y1="157.861" x2="80.9269" y2="187.266" gradientUnits="userSpaceOnUse">
<stop stop-color="#ACD0F4"/>
<stop offset="1" stop-color="#94C2FF"/>
</linearGradient>
<linearGradient id="paint6_linear_20_2385" x1="147.867" y1="179.976" x2="147.867" y2="238.422" gradientUnits="userSpaceOnUse">
<stop stop-color="#ACD7FF"/>
<stop offset="1" stop-color="#81D1F9"/>
</linearGradient>
<linearGradient id="paint7_linear_20_2385" x1="233.517" y1="160.662" x2="233.517" y2="188.731" gradientUnits="userSpaceOnUse">
<stop stop-color="#C3D9FF"/>
<stop offset="1" stop-color="#92C1FF" stop-opacity="0"/>
</linearGradient>
<linearGradient id="paint8_linear_20_2385" x1="71.1227" y1="129.922" x2="71.1227" y2="174.029" gradientUnits="userSpaceOnUse">
<stop stop-color="#C3D9FF"/>
<stop offset="1" stop-color="#92C1FF" stop-opacity="0"/>
</linearGradient>
<linearGradient id="paint9_linear_20_2385" x1="138.605" y1="69.4819" x2="138.605" y2="118.651" gradientUnits="userSpaceOnUse">
<stop stop-color="#C3D9FF"/>
<stop offset="1" stop-color="#92C1FF" stop-opacity="0"/>
</linearGradient>
<clipPath id="clip0_20_2385">
<rect width="16.9231" height="16.9231" fill="white" transform="translate(115.423 166)"/>
</clipPath>
</defs>
</svg>
