<?xml version="1.0" standalone="no"?><!DOCTYPE svg PUBLIC "-//W3C//DTD SVG 1.1//EN" "http://www.w3.org/Graphics/SVG/1.1/DTD/svg11.dtd"><svg t="1766830957172" class="icon" viewBox="0 0 1220 1024" version="1.1" xmlns="http://www.w3.org/2000/svg" p-id="10331" xmlns:xlink="http://www.w3.org/1999/xlink" width="238.28125" height="200"><path d="M1057.188755 1023.841123c-16.303242-85.744784-166.796582-167.664296-301.866615-212.430993-6.623956-2.212059-47.66315-20.702917-21.998377-98.833818a434.761255 434.761255 0 0 0 118.314603-289.645296c0-168.092042-111.89841-256.329976-241.982145-256.329975s-241.615506 88.237934-241.615506 256.452189a434.969017 434.969017 0 0 0 118.449038 290.24414c26.300282 68.879362-20.678474 94.556357-30.553301 97.966104-128.494963 46.36769-277.766172 128.592734-294.216069 212.430993a610.002769 610.002769 0 1 1 1058.366353-413.752805 606.568578 606.568578 0 0 1-162.897981 413.936125" fill="#ABB1BC" p-id="10332"></path></svg>