<?xml version="1.0" standalone="no"?>
<!DOCTYPE svg PUBLIC "-//W3C//DTD SVG 20010904//EN"
 "http://www.w3.org/TR/2001/REC-SVG-20010904/DTD/svg10.dtd">
<svg version="1.0" xmlns="http://www.w3.org/2000/svg"
 width="2639.000000pt" height="680.000000pt" viewBox="0 0 2639.000000 680.000000"
 preserveAspectRatio="xMidYMid meet">
<metadata>
Created by potrace 1.16, written by Peter Selinger 2001-2019
</metadata>
<g transform="translate(0.000000,680.000000) scale(0.100000,-0.100000)"
fill="#000000" stroke="none">
<path d="M9760 6367 c0 -7 12 -42 26 -78 66 -168 134 -352 131 -355 -2 -2
-161 -5 -353 -7 l-349 -2 -3 -432 -2 -433 3500 0 3500 0 -2 433 -3 432 -339 2
c-186 1 -341 5 -344 8 -6 6 -4 14 82 258 l65 187 -666 -2 -666 -3 -42 -115
c-24 -63 -61 -163 -82 -223 l-39 -107 -1458 0 c-803 0 -1460 1 -1461 2 -1 2
-34 86 -73 188 -39 102 -78 202 -87 223 l-15 37 -660 0 c-538 0 -660 -2 -660
-13z"/>
<path d="M2057 6353 c-4 -3 -7 -195 -7 -425 l0 -418 -240 0 -240 0 0 -420 0
-420 238 -2 237 -3 3 -1502 2 -1503 -37 -1 c-21 0 -128 -8 -238 -17 l-200 -17
-3 -418 c-2 -330 0 -417 10 -417 7 0 470 38 1028 85 558 47 1023 85 1033 85
16 0 17 27 17 421 l0 420 -42 -5 c-24 -3 -122 -13 -218 -21 -96 -8 -192 -17
-212 -20 l-38 -5 0 1460 0 1460 255 0 255 0 0 420 0 420 -255 0 -255 0 -2 423
-3 422 -541 2 c-297 2 -544 0 -547 -4z"/>
<path d="M5754 6346 c-3 -8 6 -68 20 -132 14 -65 26 -128 26 -141 l0 -23 -965
0 -965 0 0 -2336 0 -2336 -100 -374 c-55 -206 -100 -378 -100 -384 0 -16 1029
-14 1035 3 2 6 58 195 124 418 l121 406 0 1052 0 1051 620 0 620 0 0 -140 0
-140 -487 0 c-269 0 -494 -4 -501 -8 -9 -7 -12 -77 -10 -318 l3 -309 498 -3
497 -2 0 -145 0 -145 -530 0 -530 0 0 -865 0 -866 1318 3 1317 3 73 23 c236
72 414 226 517 445 70 148 69 135 73 725 l3 532 -571 0 -570 0 0 144 0 144
268 4 c261 4 269 4 347 31 225 78 386 228 472 439 35 88 52 193 53 331 l0 117
65 0 65 0 0 325 0 325 -65 0 -65 0 0 450 0 450 -552 0 c-304 0 -561 0 -570 0
-16 0 -18 11 -18 80 l0 80 -550 0 -550 0 0 -80 0 -80 -495 0 -495 0 -5 -22
c-3 -13 -4 -158 -3 -323 l3 -300 498 -3 497 -2 0 -125 0 -125 -620 0 -620 0 0
605 0 605 1805 0 1805 0 0 320 0 320 -729 0 c-686 0 -730 1 -735 18 -3 9 -17
76 -32 147 -14 72 -31 133 -38 137 -6 4 -294 8 -639 8 -536 0 -628 -2 -633
-14z m1766 -2021 l0 -125 -115 0 -115 0 0 125 0 125 115 0 115 0 0 -125z m0
-871 c0 -156 -24 -184 -155 -184 l-75 0 0 140 0 140 115 0 115 0 0 -96z m-179
-1894 c-2 -124 -4 -138 -28 -182 -14 -27 -41 -59 -59 -73 -71 -54 -80 -55
-575 -55 l-459 0 0 218 c0 120 3 222 7 225 3 4 256 6 561 5 l554 -3 -1 -135z"/>
<path d="M17886 6353 c-3 -3 -6 -73 -6 -155 l0 -148 -355 0 -355 0 0 -300 0
-300 355 0 355 0 0 -440 0 -440 2393 0 c1578 0 2413 4 2455 10 232 38 437 165
584 364 99 133 152 268 166 423 l7 78 346 3 c341 2 347 3 352 23 3 11 5 145 4
297 l-2 277 -350 5 -350 5 -5 152 -5 152 -540 -2 -540 -2 -3 -152 -3 -153
-1709 0 -1709 0 -3 153 -3 152 -536 2 c-295 1 -539 0 -543 -4z m4504 -943 c0
-83 -65 -171 -156 -211 -40 -18 -106 -19 -1625 -19 -871 0 -1596 0 -1611 0
l-28 0 0 135 0 135 1710 0 1710 0 0 -40z"/>
<path d="M9260 2700 l0 -2110 555 0 555 0 0 485 0 485 955 0 955 0 0 -115 c0
-128 -7 -150 -62 -201 -51 -48 -69 -54 -177 -54 -69 0 -102 -4 -108 -12 -4 -7
-55 -141 -114 -298 l-107 -285 482 -3 c318 -2 503 1 546 8 84 15 199 61 276
111 165 107 302 317 333 510 7 43 11 656 11 1827 l0 1762 -2050 0 -2050 0 0
-2110z m3014 1381 c3 -4 6 -120 6 -257 l1 -249 -955 -3 -956 -2 0 253 c0 140
3 257 7 260 10 10 1891 8 1897 -2z m8 -1238 c2 -5 2 -133 0 -285 l-3 -278
-954 0 -955 0 0 285 0 285 954 0 c525 0 956 -3 958 -7z"/>
<path d="M15230 3162 l0 -1589 -30 -59 c-22 -44 -42 -68 -81 -94 l-52 -35
-150 -5 -151 -5 -89 -195 c-49 -107 -127 -278 -173 -379 -46 -101 -84 -188
-84 -193 0 -5 239 -8 558 -6 637 4 597 -1 797 101 78 40 116 68 176 127 116
115 210 271 245 405 17 66 18 159 21 1793 l3 1722 -495 0 -495 0 0 -1588z"/>
<path d="M13740 4603 c0 -5 0 -710 0 -1568 l0 -1560 510 -3 510 -2 0 1570 0
1570 -510 0 c-280 0 -510 -3 -510 -7z"/>
<path d="M17960 4175 l0 -95 -395 0 -395 0 0 -305 0 -305 395 0 395 0 0 -404
0 -405 -42 -6 c-24 -4 -200 -25 -393 -48 l-350 -42 -3 -307 -2 -308 42 6 c24
3 202 24 396 48 l352 42 0 -63 0 -63 550 0 550 0 0 1175 0 1175 -550 0 -550 0
0 -95z"/>
<path d="M22310 3369 c0 -998 -2 -959 66 -1089 86 -163 230 -281 400 -324 53
-14 145 -16 632 -16 l570 0 16 48 c27 84 186 602 186 607 0 2 -164 5 -363 7
-306 3 -367 5 -382 18 -43 35 -45 61 -45 465 l0 385 394 0 c306 0 395 3 398
13 7 18 8 565 1 582 -4 13 -62 15 -399 15 l-393 0 -3 93 -3 92 -537 3 -538 2
0 -901z"/>
<path d="M19302 3118 l3 -1063 925 -3 c616 -2 961 1 1033 8 242 24 448 128
605 306 60 68 140 222 174 334 22 74 22 82 26 778 l3 702 -1386 0 -1385 0 2
-1062z m1678 150 c0 -209 -4 -377 -11 -414 -14 -78 -54 -144 -111 -181 l-43
-28 -215 0 -215 0 -2 488 -2 487 299 0 300 0 0 -352z"/>
<path d="M17545 1678 c-2 -7 -27 -96 -55 -198 -72 -262 -144 -519 -196 -701
-24 -86 -44 -159 -44 -163 0 -3 262 -5 581 -4 l582 3 62 225 c35 124 102 364
149 534 47 169 86 310 86 312 0 2 -261 4 -580 4 -456 0 -581 -3 -585 -12z"/>
<path d="M19170 1683 c0 -8 11 -49 189 -683 l108 -385 586 -3 c468 -2 586 0
582 10 -2 7 -66 222 -140 478 -75 256 -145 493 -156 528 l-21 62 -574 0 c-316
0 -574 -3 -574 -7z"/>
<path d="M20942 1668 c3 -13 71 -256 153 -541 l148 -517 584 0 c352 0 583 4
583 9 0 5 -33 126 -74 268 -41 142 -106 371 -146 508 -39 138 -75 260 -80 273
l-10 22 -581 0 -581 0 4 -22z"/>
<path d="M22713 1678 c2 -7 62 -213 132 -458 70 -245 138 -482 152 -527 l24
-83 580 0 c318 0 579 3 579 8 0 4 -69 246 -153 537 l-152 530 -584 3 c-465 2
-582 0 -578 -10z"/>
</g>
</svg>
