<svg width="26" height="26" viewBox="0 0 26 26" fill="none" xmlns="http://www.w3.org/2000/svg">
<g id="Frame" clip-path="url(#clip0_12_2343)">
<g id="Frame_2">
<path id="Vector" d="M21.8416 15.8411L14.8508 22.8319C14.4851 23.1981 13.9888 23.4038 13.4712 23.4038C12.9536 23.4038 12.4574 23.1981 12.0916 22.8319L3.33331 14.0834V4.33337H13.0833L21.8416 13.0916C22.5976 13.8522 22.5976 15.0806 21.8416 15.8411Z" stroke="#595A5C" stroke-width="2" stroke-linejoin="round"/>
<path id="Vector_2" fill-rule="evenodd" clip-rule="evenodd" d="M9.02085 11.375C9.76873 11.375 10.375 10.7687 10.375 10.0208C10.375 9.27291 9.76873 8.66663 9.02085 8.66663C8.27297 8.66663 7.66669 9.27291 7.66669 10.0208C7.66669 10.7687 8.27297 11.375 9.02085 11.375Z" fill="#595A5C"/>
<path id="Vector 1574" d="M13 18L17 14" stroke="#595A5C" stroke-width="2"/>
</g>
</g>
<defs>
<clipPath id="clip0_12_2343">
<rect width="26" height="26" fill="white" transform="translate(-0.852051)"/>
</clipPath>
</defs>
</svg>
