<svg width="28" height="28" viewBox="0 0 28 28" fill="none" xmlns="http://www.w3.org/2000/svg">
<g id="Frame">
<g clip-path="url(#clip0_13_330)">
<g id="Frame_2">
<path id="Vector" d="M8.42169 15.8246C9.45975 15.8246 10.3013 14.9831 10.3013 13.9451C10.3013 14.9831 11.1428 15.8246 12.1808 15.8246C13.2189 15.8246 14.0604 14.9831 14.0604 13.9451C14.0604 14.9831 14.9019 15.8246 15.94 15.8246C16.9781 15.8246 17.8196 14.9831 17.8196 13.9451C17.8196 14.9831 18.6611 15.8246 19.6992 15.8246C20.7372 15.8246 21.5787 14.9831 21.5787 13.9451C21.5787 18.0973 18.2127 21.4634 14.0604 21.4634C9.90817 21.4634 6.54211 18.0973 6.54211 13.9451C6.54211 14.9831 7.38363 15.8246 8.42169 15.8246Z" stroke="#20A9EE" stroke-linecap="round" stroke-linejoin="round"/>
<path id="Vector_2" d="M15.5641 9.80988C15.5641 10.6403 14.8909 11.3135 14.0604 11.3135C13.23 11.3135 12.5568 10.6403 12.5568 9.80988C12.5568 8.97944 14.0604 6.42664 14.0604 6.42664C14.0604 6.42664 15.5641 8.97944 15.5641 9.80988Z" stroke="#20A9EE" stroke-linecap="round" stroke-linejoin="round"/>
</g>
</g>
<path d="M14 0.423096C21.4558 0.423096 27.5 6.46725 27.5 13.9231C27.5 21.3789 21.4558 27.4231 14 27.4231C6.54416 27.4231 0.5 21.3789 0.5 13.9231C0.5 6.46725 6.54416 0.423096 14 0.423096Z" stroke="#6DC9F8"/>
</g>
<defs>
<clipPath id="clip0_13_330">
<path d="M0 13.9231C0 6.19111 6.26801 -0.0769043 14 -0.0769043C21.732 -0.0769043 28 6.19111 28 13.9231C28 21.6551 21.732 27.9231 14 27.9231C6.26801 27.9231 0 21.6551 0 13.9231Z" fill="white"/>
</clipPath>
</defs>
</svg>
