<svg width="28" height="28" viewBox="0 0 28 28" fill="none" xmlns="http://www.w3.org/2000/svg">
<g id="Frame">
<g clip-path="url(#clip0_13_402)">
<g id="Frame_2">
<path id="Vector" d="M9.33325 7.99992C9.33325 7.63173 9.63172 7.33325 9.99992 7.33325H19.3333C19.7015 7.33325 19.9999 7.63173 19.9999 7.99992V19.9999C19.9999 20.3681 19.7015 20.6666 19.3333 20.6666H9.99992C9.63172 20.6666 9.33325 20.3681 9.33325 19.9999V7.99992Z" stroke="#20A9EE" stroke-linejoin="round"/>
<path id="Vector_2" d="M17.3333 8V20" stroke="#20A9EE" stroke-linecap="round" stroke-linejoin="round"/>
<path id="Vector_3" d="M8 10.6667H10.6667" stroke="#20A9EE" stroke-linecap="round" stroke-linejoin="round"/>
<path id="Vector_4" d="M8 14H10.6667" stroke="#20A9EE" stroke-linecap="round" stroke-linejoin="round"/>
<path id="Vector_5" d="M8 17.3333H10.6667" stroke="#20A9EE" stroke-linecap="round" stroke-linejoin="round"/>
<path id="Vector_6" d="M15 7.33325H19" stroke="#20A9EE" stroke-linecap="round" stroke-linejoin="round"/>
<path id="Vector_7" d="M15 20.6667H19" stroke="#20A9EE" stroke-linecap="round" stroke-linejoin="round"/>
</g>
</g>
<path d="M14 0.5C21.4558 0.5 27.5 6.54416 27.5 14C27.5 21.4558 21.4558 27.5 14 27.5C6.54416 27.5 0.5 21.4558 0.5 14C0.5 6.54416 6.54416 0.5 14 0.5Z" stroke="#6DC9F8"/>
</g>
<defs>
<clipPath id="clip0_13_402">
<path d="M0 14C0 6.26801 6.26801 0 14 0C21.732 0 28 6.26801 28 14C28 21.732 21.732 28 14 28C6.26801 28 0 21.732 0 14Z" fill="white"/>
</clipPath>
</defs>
</svg>
