<svg width="28" height="28" viewBox="0 0 28 28" fill="none" xmlns="http://www.w3.org/2000/svg">
<g id="Frame">
<g clip-path="url(#clip0_13_364)">
<g id="Frame_2">
<path id="Vector" d="M7.33325 19.3333H10.6666" stroke="#20A9EE" stroke-linecap="round" stroke-linejoin="round"/>
<path id="Vector_2" d="M7.33325 16.6667H13.9999" stroke="#20A9EE" stroke-linecap="round" stroke-linejoin="round"/>
<path id="Vector_3" d="M13.3333 19.3333H14.9999" stroke="#20A9EE" stroke-linecap="round" stroke-linejoin="round"/>
<path id="Vector_4" d="M18.3333 19.3333H20.6666" stroke="#20A9EE" stroke-linecap="round" stroke-linejoin="round"/>
<path id="Vector_5" d="M17.6667 16.6667H20.6667" stroke="#20A9EE" stroke-linecap="round" stroke-linejoin="round"/>
<path id="Vector_6" d="M16.6667 14H20.6667" stroke="#20A9EE" stroke-linecap="round" stroke-linejoin="round"/>
<path id="Vector_7" d="M11.3333 14H13.3333" stroke="#20A9EE" stroke-linecap="round" stroke-linejoin="round"/>
<path id="Vector_8" d="M7.33325 14H7.99992" stroke="#20A9EE" stroke-linecap="round" stroke-linejoin="round"/>
<path id="Vector_9" d="M7.33325 11.3333H8.66659" stroke="#20A9EE" stroke-linecap="round" stroke-linejoin="round"/>
<path id="Vector_10" d="M7.33325 8.66675H9.66659L12.3333 11.3334H20.6666" stroke="#20A9EE" stroke-linecap="round" stroke-linejoin="round"/>
<path id="Vector_11" d="M13.3333 8.66675H20.6666" stroke="#20A9EE" stroke-linecap="round" stroke-linejoin="round"/>
</g>
</g>
<path d="M14 0.5C21.4558 0.5 27.5 6.54416 27.5 14C27.5 21.4558 21.4558 27.5 14 27.5C6.54416 27.5 0.5 21.4558 0.5 14C0.5 6.54416 6.54416 0.5 14 0.5Z" stroke="#6DC9F8"/>
</g>
<defs>
<clipPath id="clip0_13_364">
<path d="M0 14C0 6.26801 6.26801 0 14 0C21.732 0 28 6.26801 28 14C28 21.732 21.732 28 14 28C6.26801 28 0 21.732 0 14Z" fill="white"/>
</clipPath>
</defs>
</svg>
