<svg width="28" height="28" viewBox="0 0 28 28" fill="none" xmlns="http://www.w3.org/2000/svg">
<g id="Frame 2085666503">
<path d="M14 0.5C21.4558 0.5 27.5 6.54416 27.5 14C27.5 21.4558 21.4558 27.5 14 27.5C6.54416 27.5 0.5 21.4558 0.5 14C0.5 6.54416 6.54416 0.5 14 0.5Z" stroke="#6DC9F8"/>
<g id="Frame" clip-path="url(#clip0_13_398)">
<path id="Vector" d="M20.5833 11.6666C20.5833 14.0138 18.6805 15.9166 16.3333 15.9166C15.6155 15.9166 14.9393 15.7387 14.3463 15.4245L8.18746 21.5833L6.41663 19.8125L12.5754 13.6536C12.2613 13.0607 12.0833 12.3844 12.0833 11.6666C12.0833 9.31941 13.9861 7.41663 16.3333 7.41663C17.0511 7.41663 17.7273 7.59458 18.3203 7.90877L15.625 10.6041L17.3958 12.375L20.0911 9.67961C20.4053 10.2726 20.5833 10.9488 20.5833 11.6666Z" stroke="#20A9EE" stroke-linecap="round" stroke-linejoin="round"/>
</g>
</g>
<defs>
<clipPath id="clip0_13_398">
<rect width="17" height="17" fill="white" transform="translate(5 6)"/>
</clipPath>
</defs>
</svg>
