<svg width="28" height="28" viewBox="0 0 28 28" fill="none" xmlns="http://www.w3.org/2000/svg">
<g id="Frame">
<g clip-path="url(#clip0_13_392)">
<g id="Frame_2">
<path id="Vector" d="M20.9349 16.3577L16.3641 20.9286C16.1249 21.168 15.8004 21.3025 15.462 21.3025C15.1236 21.3025 14.7991 21.168 14.5599 20.9286L8.83337 15.2084V8.83337H15.2084L20.9349 14.5599C21.4293 15.0572 21.4293 15.8604 20.9349 16.3577Z" stroke="#20A9EE" stroke-linejoin="round"/>
<path id="Vector_2" fill-rule="evenodd" clip-rule="evenodd" d="M12.552 13.4375C13.041 13.4375 13.4375 13.041 13.4375 12.552C13.4375 12.063 13.041 11.6666 12.552 11.6666C12.063 11.6666 11.6666 12.063 11.6666 12.552C11.6666 13.041 12.063 13.4375 12.552 13.4375Z" fill="#20A9EE"/>
<path id="Vector 1574" d="M15.1539 17.7693L17.7693 15.1539" stroke="#20A9EE"/>
</g>
</g>
<path d="M14 0.5C21.4558 0.5 27.5 6.54416 27.5 14C27.5 21.4558 21.4558 27.5 14 27.5C6.54416 27.5 0.5 21.4558 0.5 14C0.5 6.54416 6.54416 0.5 14 0.5Z" stroke="#6DC9F8"/>
</g>
<defs>
<clipPath id="clip0_13_392">
<path d="M0 14C0 6.26801 6.26801 0 14 0C21.732 0 28 6.26801 28 14C28 21.732 21.732 28 14 28C6.26801 28 0 21.732 0 14Z" fill="white"/>
</clipPath>
</defs>
</svg>
