<svg width="28" height="28" viewBox="0 0 28 28" fill="none" xmlns="http://www.w3.org/2000/svg">
<g id="Frame 2085666501">
<path d="M14 0.5C21.4558 0.5 27.5 6.54416 27.5 14C27.5 21.4558 21.4558 27.5 14 27.5C6.54416 27.5 0.5 21.4558 0.5 14C0.5 6.54416 6.54416 0.5 14 0.5Z" stroke="#6DC9F8"/>
<g id="Frame">
<path id="Vector" d="M15.6479 14.3333H19.6479" stroke="#20A9EE" stroke-linecap="round" stroke-linejoin="round"/>
<path id="Vector_2" d="M17.6479 12.3333L19.6479 14.3333L17.6479 16.3333" stroke="#20A9EE" stroke-linecap="round" stroke-linejoin="round"/>
<path id="Vector_3" d="M12.6479 8V14.6667C12.6479 16.913 10.5929 19.1889 8.64795 20" stroke="#20A9EE" stroke-linecap="round" stroke-linejoin="round"/>
<path id="Vector_4" d="M19.6479 10.6667V9C19.6479 8.44772 19.2002 8 18.6479 8H8.64795C8.09567 8 7.64795 8.44772 7.64795 9V19C7.64795 19.5523 8.09567 20 8.64795 20H18.6479C19.2002 20 19.6479 19.5523 19.6479 19V17.8333" stroke="#20A9EE" stroke-linecap="round" stroke-linejoin="round"/>
</g>
</g>
</svg>
